<svg xmlns="http://www.w3.org/2000/svg" viewBox="0 0 128 128" width="128" height="128">
  <defs>
    <linearGradient id="blueGrad" x1="0%" y1="0%" x2="100%" y2="100%">
      <stop offset="0%" stop-color="#3b82f6" />
      <stop offset="100%" stop-color="#1d4ed8" />
    </linearGradient>
    <filter id="shadow" x="-10%" y="-10%" width="120%" height="120%">
      <feDropShadow dx="0" dy="4" stdDeviation="4" flood-opacity="0.25"/>
    </filter>
  </defs>
  <circle cx="64" cy="64" r="58" fill="url(#blueGrad)" filter="url(#shadow)" />
  <circle cx="64" cy="64" r="52" fill="none" stroke="#ffffff" stroke-opacity="0.15" stroke-width="2" />
  <circle cx="64" cy="38" r="8" fill="#ffffff" />
  <path d="M 64,48 
           C 54,48 38,54 32,58 
           C 30,59.5 30,62.5 32,64 
           C 34,65 37,64.5 39,63 
           C 47,57 58,54 64,54 
           C 70,54 81,57 89,63 
           C 91,64.5 94,65 96,64 
           C 98,62.5 98,59.5 96,58 
           C 90,54 74,48 64,48 Z" fill="#ffffff" />
  <rect x="61" y="49" width="6" height="24" rx="3" fill="#ffffff" />
  <path d="M 64,71
           C 61,71 52,88 46,98
           C 44,101 47,104 50,104
           C 52.5,104 55,102 57.5,97
           L 64,83
           L 70.5,97
           C 73,102 75.5,104 78,104
           C 81,104 84,101 82,98
           C 76,88 67,71 64,71 Z" fill="#ffffff" />
</svg>
